<svg width="20" height="20" viewBox="0 0 20 20" fill="none" xmlns="http://www.w3.org/2000/svg">
<path opacity="0.3" d="M13.726 13.7259C17.8415 9.61033 19.5097 4.60585 17.4519 2.54807C15.3941 0.490293 10.3897 2.15845 6.27411 6.27401C2.15857 10.3896 0.490415 15.394 2.54819 17.4518C4.60596 19.5096 9.61042 17.8414 13.726 13.7259Z" fill="url(#paint0_linear_1_469)"/>
<path opacity="0.3" d="M6.27395 13.726C2.1584 9.61044 0.49025 4.60597 2.54802 2.54819C4.6058 0.490409 9.61026 2.15857 13.7258 6.27413C17.8413 10.3897 19.5095 15.3942 17.4517 17.4519C15.394 19.5097 10.3895 17.8416 6.27395 13.726Z" fill="url(#paint1_linear_1_469)"/>
<path d="M12.0833 10C12.0833 11.1506 11.1506 12.0833 9.99996 12.0833C8.84937 12.0833 7.91663 11.1506 7.91663 10C7.91663 8.84941 8.84937 7.91667 9.99996 7.91667C11.1506 7.91667 12.0833 8.84941 12.0833 10Z" fill="url(#paint2_linear_1_469)"/>
<defs>
<linearGradient id="paint0_linear_1_469" x1="1.66663" y1="10" x2="18.3333" y2="10" gradientUnits="userSpaceOnUse">
<stop stop-color="white"/>
<stop offset="1" stop-color="#668B79"/>
</linearGradient>
<linearGradient id="paint1_linear_1_469" x1="1.66663" y1="10" x2="18.3333" y2="10" gradientUnits="userSpaceOnUse">
<stop stop-color="white"/>
<stop offset="1" stop-color="#668B79"/>
</linearGradient>
<linearGradient id="paint2_linear_1_469" x1="7.91663" y1="10" x2="12.0833" y2="10" gradientUnits="userSpaceOnUse">
<stop stop-color="white"/>
<stop offset="1" stop-color="#668B79"/>
</linearGradient>
</defs>
</svg>
