<svg width="20" height="20" viewBox="0 0 20 20" fill="none" xmlns="http://www.w3.org/2000/svg">
<path opacity="0.5" d="M10 18.3333C14.6024 18.3333 18.3333 14.6024 18.3333 9.99999C18.3333 5.39762 14.6024 1.66666 10 1.66666C5.39763 1.66666 1.66667 5.39762 1.66667 9.99999C1.66667 11.3331 1.97968 12.593 2.53622 13.7104C2.68412 14.0073 2.73334 14.3467 2.6476 14.6672L2.15126 16.5222C1.9358 17.3275 2.67251 18.0642 3.47779 17.8487L5.33282 17.3524C5.65328 17.2666 5.99267 17.3159 6.28961 17.4638C7.40697 18.0203 8.66693 18.3333 10 18.3333Z" fill="url(#paint0_linear_4_587)"/>
<path d="M6.52083 10.7083C6.14114 10.7083 5.83333 11.0161 5.83333 11.3958C5.83333 11.7755 6.14114 12.0833 6.52083 12.0833H11.5625C11.9422 12.0833 12.25 11.7755 12.25 11.3958C12.25 11.0161 11.9422 10.7083 11.5625 10.7083H6.52083Z" fill="url(#paint1_linear_4_587)"/>
<path d="M6.52083 7.5C6.14114 7.5 5.83333 7.8078 5.83333 8.1875C5.83333 8.5672 6.14114 8.875 6.52083 8.875H13.8542C14.2339 8.875 14.5417 8.5672 14.5417 8.1875C14.5417 7.8078 14.2339 7.5 13.8542 7.5H6.52083Z" fill="url(#paint2_linear_4_587)"/>
<defs>
<linearGradient id="paint0_linear_4_587" x1="18.3333" y1="9.99999" x2="1.66667" y2="9.99999" gradientUnits="userSpaceOnUse">
<stop stop-color="white"/>
<stop offset="1" stop-color="#668B79"/>
</linearGradient>
<linearGradient id="paint1_linear_4_587" x1="5.83333" y1="9.79167" x2="14.5417" y2="9.79167" gradientUnits="userSpaceOnUse">
<stop stop-color="white"/>
<stop offset="1" stop-color="#668B79"/>
</linearGradient>
<linearGradient id="paint2_linear_4_587" x1="5.83333" y1="9.79167" x2="14.5417" y2="9.79167" gradientUnits="userSpaceOnUse">
<stop stop-color="white"/>
<stop offset="1" stop-color="#668B79"/>
</linearGradient>
</defs>
</svg>
