<svg width="12" height="12" viewBox="0 0 12 12" fill="none" xmlns="http://www.w3.org/2000/svg">
<g clip-path="url(#clip0_4_674)">
<path d="M11 11H6C3.64298 11 2.46447 11 1.73223 10.2678C1 9.53553 1 8.35702 1 6V1" stroke="#697C72" stroke-linecap="round"/>
<path d="M9.50008 3.5L7.94107 5.4632C7.70227 5.76392 7.58286 5.91428 7.44578 5.98756C7.23502 6.10024 6.98317 6.10572 6.7677 6.00231C6.62757 5.93506 6.50174 5.79004 6.25008 5.49999C5.99842 5.20995 5.87259 5.06493 5.73246 4.99768C5.51699 4.89427 5.26515 4.89975 5.05438 5.01242C4.9173 5.0857 4.7979 5.23606 4.55909 5.53677L3 7.5" stroke="#697C72" stroke-linecap="round"/>
</g>
<defs>
<clipPath id="clip0_4_674">
<rect width="12" height="12" fill="white"/>
</clipPath>
</defs>
</svg>
