<svg width="20" height="20" viewBox="0 0 20 20" fill="none" xmlns="http://www.w3.org/2000/svg">
<path d="M10.0657 1.875C6.07113 1.875 2.78727 4.9275 2.46709 8.81944H1.66664C1.41341 8.81944 1.1852 8.97225 1.08875 9.2064C0.992302 9.44055 1.04668 9.70976 1.22644 9.88812L2.62629 11.277C2.86996 11.5188 3.26302 11.5188 3.50669 11.277L4.90653 9.88812C5.0863 9.70976 5.14067 9.44055 5.04422 9.2064C4.94777 8.97225 4.71957 8.81944 4.46633 8.81944H3.72229C4.03872 5.62639 6.75395 3.125 10.0657 3.125C12.3736 3.125 14.3939 4.34037 15.5129 6.16066C15.6937 6.45471 16.0786 6.54654 16.3727 6.36576C16.6668 6.18499 16.7586 5.80006 16.5778 5.50601C15.2392 3.32856 12.8227 1.875 10.0657 1.875Z" fill="url(#paint0_linear_1_361)"/>
<path opacity="0.5" d="M17.3677 8.72217C17.1243 8.48152 16.7325 8.48152 16.489 8.72217L15.0838 10.1111C14.9036 10.2892 14.8488 10.5586 14.9451 10.7931C15.0414 11.0275 15.2697 11.1806 15.5232 11.1806H16.2724C15.9547 14.3718 13.23 16.875 9.9024 16.875C7.58366 16.875 5.555 15.6586 4.43174 13.8385C4.25046 13.5447 3.86538 13.4535 3.57164 13.6348C3.27789 13.8161 3.18672 14.2012 3.36799 14.4949C4.71184 16.6725 7.13682 18.125 9.9024 18.125C13.909 18.125 17.2063 15.0744 17.5277 11.1806H18.3336C18.587 11.1806 18.8154 11.0275 18.9117 10.7931C19.008 10.5586 18.9532 10.2892 18.7729 10.1111L17.3677 8.72217Z" fill="url(#paint1_linear_1_361)"/>
<defs>
<linearGradient id="paint0_linear_1_361" x1="1.04163" y1="6.66667" x2="16.6705" y2="6.66667" gradientUnits="userSpaceOnUse">
<stop stop-color="white"/>
<stop offset="1" stop-color="#668B79"/>
</linearGradient>
<linearGradient id="paint1_linear_1_361" x1="3.27478" y1="13.3334" x2="18.9586" y2="13.3334" gradientUnits="userSpaceOnUse">
<stop stop-color="white"/>
<stop offset="1" stop-color="#668B79"/>
</linearGradient>
</defs>
</svg>
