<svg width="12" height="12" viewBox="0 0 12 12" fill="none" xmlns="http://www.w3.org/2000/svg">
<g clip-path="url(#clip0_4_664)">
<path d="M1 6C1 3.64298 1 2.46447 1.73223 1.73223C2.46447 1 3.64298 1 6 1C8.35702 1 9.53553 1 10.2678 1.73223C11 2.46447 11 3.64298 11 6C11 8.35702 11 9.53553 10.2678 10.2678C9.53553 11 8.35702 11 6 11C3.64298 11 2.46447 11 1.73223 10.2678C1 9.53553 1 8.35702 1 6Z" stroke="#697C72"/>
<path d="M3 3.5L3 8.5" stroke="#697C72" stroke-linecap="round"/>
<path d="M5.5 6C5.5 5.17157 6.17157 4.5 7 4.5C7.82843 4.5 8.5 5.17157 8.5 6C8.5 6.82843 7.82843 7.5 7 7.5C6.17157 7.5 5.5 6.82843 5.5 6Z" stroke="#697C72"/>
<path d="M8.25 4.75L9 4" stroke="#697C72" stroke-linecap="round"/>
<path d="M5 8L5.75 7.25" stroke="#697C72" stroke-linecap="round"/>
<path d="M5.75 4.75L5 4" stroke="#697C72" stroke-linecap="round"/>
<path d="M9 8L8.25 7.25" stroke="#697C72" stroke-linecap="round"/>
</g>
<defs>
<clipPath id="clip0_4_664">
<rect width="12" height="12" fill="white"/>
</clipPath>
</defs>
</svg>
