<svg width="12" height="12" viewBox="0 0 12 12" fill="none" xmlns="http://www.w3.org/2000/svg">
<g clip-path="url(#clip0_4_657)">
<path d="M4.5 7.5L7.5 4.5" stroke="#697C72" stroke-linecap="round"/>
<path d="M7.75 7.25C7.75 7.52614 7.52614 7.75 7.25 7.75C6.97386 7.75 6.75 7.52614 6.75 7.25C6.75 6.97386 6.97386 6.75 7.25 6.75C7.52614 6.75 7.75 6.97386 7.75 7.25Z" fill="#697C72"/>
<path d="M5.25 4.75C5.25 5.02614 5.02614 5.25 4.75 5.25C4.47386 5.25 4.25 5.02614 4.25 4.75C4.25 4.47386 4.47386 4.25 4.75 4.25C5.02614 4.25 5.25 4.47386 5.25 4.75Z" fill="#697C72"/>
<path d="M1 6C1 3.64298 1 2.46447 1.73223 1.73223C2.46447 1 3.64298 1 6 1C8.35702 1 9.53553 1 10.2678 1.73223C11 2.46447 11 3.64298 11 6C11 8.35702 11 9.53553 10.2678 10.2678C9.53553 11 8.35702 11 6 11C3.64298 11 2.46447 11 1.73223 10.2678C1 9.53553 1 8.35702 1 6Z" stroke="#697C72"/>
</g>
<defs>
<clipPath id="clip0_4_657">
<rect width="12" height="12" fill="white"/>
</clipPath>
</defs>
</svg>
