<svg width="20" height="20" viewBox="0 0 20 20" fill="none" xmlns="http://www.w3.org/2000/svg">
<path d="M15.5298 13.0585L16.9602 8.76735C18.2097 5.0187 18.8345 3.14437 17.8451 2.15498C16.8557 1.16559 14.9814 1.79037 11.2328 3.03992L6.94164 4.47029C3.91611 5.4788 2.40335 5.98305 1.97346 6.7225C1.56451 7.42596 1.56451 8.29476 1.97346 8.99821C2.40335 9.73767 3.91611 10.2419 6.94164 11.2504C7.42743 11.4124 7.67033 11.4933 7.87336 11.6292C8.07012 11.761 8.23914 11.93 8.37086 12.1267C8.50677 12.3298 8.58774 12.5727 8.74967 13.0585C9.75818 16.084 10.2624 17.5968 11.0019 18.0266C11.7053 18.4356 12.5741 18.4356 13.2776 18.0266C14.017 17.5968 14.5213 16.084 15.5298 13.0585Z" stroke="#697C72" stroke-width="1.5"/>
</svg>
