<svg width="20" height="20" viewBox="0 0 20 20" fill="none" xmlns="http://www.w3.org/2000/svg">
<path opacity="0.5" fill-rule="evenodd" clip-rule="evenodd" d="M10.3564 1.66667C9.42824 1.66667 8.58294 2.16726 6.89234 3.16843L6.32055 3.50705C4.62995 4.50823 3.78465 5.00881 3.32055 5.83334C2.85645 6.65786 2.85645 7.65904 2.85645 9.66139V10.3386C2.85645 12.341 2.85645 13.3421 3.32055 14.1667C3.78465 14.9912 4.62995 15.4918 6.32055 16.493L6.89234 16.8316C8.58294 17.8328 9.42824 18.3333 10.3564 18.3333C11.2846 18.3333 12.1299 17.8328 13.8205 16.8316L14.3923 16.493C16.0829 15.4918 16.9282 14.9912 17.3923 14.1667C17.8564 13.3421 17.8564 12.341 17.8564 10.3386V9.66139C17.8564 7.65904 17.8564 6.65786 17.3923 5.83334C16.9282 5.00881 16.0829 4.50823 14.3923 3.50705L13.8205 3.16843C12.1299 2.16726 11.2846 1.66667 10.3564 1.66667Z" fill="url(#paint0_linear_1_453)"/>
<path d="M10.3564 6.875C8.63056 6.875 7.23145 8.27411 7.23145 10C7.23145 11.7259 8.63056 13.125 10.3564 13.125C12.0823 13.125 13.4814 11.7259 13.4814 10C13.4814 8.27411 12.0823 6.875 10.3564 6.875Z" fill="url(#paint1_linear_1_453)"/>
<defs>
<linearGradient id="paint0_linear_1_453" x1="2.85645" y1="10" x2="17.8564" y2="10" gradientUnits="userSpaceOnUse">
<stop stop-color="white"/>
<stop offset="1" stop-color="#668B79"/>
</linearGradient>
<linearGradient id="paint1_linear_1_453" x1="7.23145" y1="10" x2="13.4814" y2="10" gradientUnits="userSpaceOnUse">
<stop stop-color="white"/>
<stop offset="1" stop-color="#668B79"/>
</linearGradient>
</defs>
</svg>
