<svg width="24" height="18" viewBox="0 0 24 18" fill="none" xmlns="http://www.w3.org/2000/svg">
<path d="M24 10.1241L23.939 10.1027C22.5388 9.61945 20.7904 10.0956 18.5933 11.5561C16.8646 12.7044 15.0456 14.3113 12.8996 16.355C12.5104 16.7257 12.2751 17.2294 12.2369 17.7655C12.2369 17.8934 12.1292 18 12 18C11.8708 18 11.7631 17.8969 11.7631 17.769C11.7152 17.225 11.4977 16.7105 11.1443 16.2941C11.0874 16.2271 11.0309 16.1604 10.975 16.094C8.13164 12.7501 5.19132 9.29252 0.0430816 10.5647L0 10.5754L0.0143606 10.5363C0.581601 8.86965 2.71055 7.64368 4.77128 6.45324C7.0546 5.13843 9.20868 3.89469 9.35228 2.12857V0.277176V0.273623C9.39177 0.12082 9.48871 0.0213213 9.59641 0.0142142C9.7077 0.0106607 9.80464 0.103053 9.86567 0.270069V0.277176L9.95901 2.21386C10.5334 3.43272 11.3197 4.12211 12.1203 4.10079C12.9029 4.08302 13.6281 3.39364 14.1164 2.21386L14.2097 0.270069L14.2133 0.266516C14.2923 0.0959457 14.4036 0 14.5185 0C14.6334 0 14.7411 0.0959457 14.8165 0.266516V0.277176V2.21741C14.6693 3.81295 16.572 4.83993 18.7692 6.03037C20.7079 7.07866 22.9014 8.26555 23.9677 10.0636L24 10.1241Z" fill="white"/>
</svg>
